<?xml version="1.0" encoding="UTF-8"?>
<svg version="1.1" xmlns="http://www.w3.org/2000/svg" width="153" height="190">
<path d="M0 0 C20.79 0 41.58 0 63 0 C63 2.97 63 5.94 63 9 C65.97 9 68.94 9 72 9 C72 14.94 72 20.88 72 27 C80.91 27 89.82 27 99 27 C99 32.94 99 38.88 99 45 C101.97 45 104.94 45 108 45 C108 65.79 108 86.58 108 108 C105.03 108 102.06 108 99 108 C99 125.82 99 143.64 99 162 C96.03 162 93.06 162 90 162 C90 164.97 90 167.94 90 171 C95.94 171 101.88 171 108 171 C108 173.97 108 176.94 108 180 C110.97 180 113.94 180 117 180 C117 181.65 117 183.3 117 185 C75.42 185 33.84 185 -9 185 C-9 183.35 -9 181.7 -9 180 C-6.03 180 -3.06 180 0 180 C0 153.27 0 126.54 0 99 C2.97 99 5.94 99 9 99 C9 78.21 9 57.42 9 36 C3.06 36 -2.88 36 -9 36 C-9 27.09 -9 18.18 -9 9 C-6.03 9 -3.06 9 0 9 C0 6.03 0 3.06 0 0 Z M54 162 C54 164.97 54 167.94 54 171 C56.97 171 59.94 171 63 171 C63 168.03 63 165.06 63 162 C60.03 162 57.06 162 54 162 Z " fill="#0E0C0E" transform="translate(23,5)"/>
<path d="M0 0 C20.79 0 41.58 0 63 0 C63 14.85 63 29.7 63 45 C42.21 45 21.42 45 0 45 C0 30.15 0 15.3 0 0 Z " fill="#B3AAA1" transform="translate(59,59)"/>
<path d="M0 0 C26.73 0 53.46 0 81 0 C81 2.97 81 5.94 81 9 C66.15 9 51.3 9 36 9 C36 23.85 36 38.7 36 54 C24.12 54 12.24 54 0 54 C0 36.18 0 18.36 0 0 Z " fill="#0A7030" transform="translate(32,113)"/>
<path d="M0 0 C35.64 0 71.28 0 108 0 C108 2.97 108 5.94 108 9 C110.97 9 113.94 9 117 9 C117 10.65 117 12.3 117 14 C75.42 14 33.84 14 -9 14 C-9 12.35 -9 10.7 -9 9 C-6.03 9 -3.06 9 0 9 C0 6.03 0 3.06 0 0 Z " fill="#231C19" transform="translate(23,176)"/>
<path d="M0 0 C17.82 0 35.64 0 54 0 C54 2.97 54 5.94 54 9 C39.15 9 24.3 9 9 9 C9 23.85 9 38.7 9 54 C-2.88 54 -14.76 54 -27 54 C-27 51.03 -27 48.06 -27 45 C-18.09 45 -9.18 45 0 45 C0 30.15 0 15.3 0 0 Z " fill="#EBA724" transform="translate(59,113)"/>
<path d="M0 0 C23.76 0 47.52 0 72 0 C72 2.97 72 5.94 72 9 C51.21 9 30.42 9 9 9 C9 26.82 9 44.64 9 63 C6.03 63 3.06 63 0 63 C0 42.21 0 21.42 0 0 Z " fill="#7C776F" transform="translate(41,41)"/>
<path d="M0 0 C11.88 0 23.76 0 36 0 C36 8.91 36 17.82 36 27 C33.03 27 30.06 27 27 27 C27 29.97 27 32.94 27 36 C24.03 36 21.06 36 18 36 C18 30.06 18 24.12 18 18 C12.06 18 6.12 18 0 18 C0 12.06 0 6.12 0 0 Z " fill="#7C776F" transform="translate(77,131)"/>
<path d="M0 0 C14.85 0 29.7 0 45 0 C45 2.97 45 5.94 45 9 C47.97 9 50.94 9 54 9 C54 11.97 54 14.94 54 18 C51.03 18 48.06 18 45 18 C45 20.97 45 23.94 45 27 C39.06 27 33.12 27 27 27 C27 24.03 27 21.06 27 18 C24.03 18 21.06 18 18 18 C18 15.03 18 12.06 18 9 C12.06 9 6.12 9 0 9 C0 6.03 0 3.06 0 0 Z " fill="#D2202C" transform="translate(32,14)"/>
<path d="M0 0 C41.58 0 83.16 0 126 0 C126 1.65 126 3.3 126 5 C84.42 5 42.84 5 0 5 C0 3.35 0 1.7 0 0 Z " fill="#95D836" transform="translate(14,185)"/>
<path d="M0 0 C2.97 0 5.94 0 9 0 C9 14.85 9 29.7 9 45 C6.03 45 3.06 45 0 45 C0 30.15 0 15.3 0 0 Z " fill="#7C776F" transform="translate(41,59)"/>
<path d="M0 0 C8.91 0 17.82 0 27 0 C27 2.97 27 5.94 27 9 C21.06 9 15.12 9 9 9 C9 11.97 9 14.94 9 18 C6.03 18 3.06 18 0 18 C0 12.06 0 6.12 0 0 Z " fill="#EADFD1" transform="translate(59,59)"/>
<path d="M0 0 C8.91 0 17.82 0 27 0 C27 2.97 27 5.94 27 9 C21.06 9 15.12 9 9 9 C9 11.97 9 14.94 9 18 C6.03 18 3.06 18 0 18 C0 12.06 0 6.12 0 0 Z " fill="#EADFD1" transform="translate(41,41)"/>
<path d="M0 0 C5.94 0 11.88 0 18 0 C18 2.97 18 5.94 18 9 C15.03 9 12.06 9 9 9 C9 11.97 9 14.94 9 18 C6.03 18 3.06 18 0 18 C0 12.06 0 6.12 0 0 Z " fill="#B3AAA1" transform="translate(95,149)"/>
<path d="M0 0 C2.97 0 5.94 0 9 0 C9 8.91 9 17.82 9 27 C6.03 27 3.06 27 0 27 C0 18.09 0 9.18 0 0 Z " fill="#0E0D0E" transform="translate(104,68)"/>
<path d="M0 0 C2.97 0 5.94 0 9 0 C9 8.91 9 17.82 9 27 C6.03 27 3.06 27 0 27 C0 18.09 0 9.18 0 0 Z " fill="#0E0D0E" transform="translate(86,68)"/>
<path d="M0 0 C2.97 0 5.94 0 9 0 C9 8.91 9 17.82 9 27 C6.03 27 3.06 27 0 27 C0 18.09 0 9.18 0 0 Z " fill="#0E0D0E" transform="translate(68,68)"/>
<path d="M0 0 C2.97 0 5.94 0 9 0 C9 2.97 9 5.94 9 9 C6.03 9 3.06 9 0 9 C0 6.03 0 3.06 0 0 Z " fill="#D2202C" transform="translate(23,23)"/>
<path d="M0 0 C2.97 0 5.94 0 9 0 C9 1.65 9 3.3 9 5 C6.03 5 3.06 5 0 5 C0 3.35 0 1.7 0 0 Z " fill="#231C19" transform="translate(131,185)"/>
<path d="M0 0 C2.97 0 5.94 0 9 0 C9 1.65 9 3.3 9 5 C6.03 5 3.06 5 0 5 C0 3.35 0 1.7 0 0 Z " fill="#231C19" transform="translate(14,185)"/>
</svg>
